<svg width="194" height="80" viewBox="0 0 194 80" fill="none" xmlns="http://www.w3.org/2000/svg">
<path fill-rule="evenodd" clip-rule="evenodd" d="M164.459 39.3906C174.808 43.3495 180.847 48.1074 180.847 53.2248C180.847 67.001 137.129 78.1686 83.1969 78.1686C48.0178 78.1686 17.1887 73.4152 0 66.2882C16.3447 74.3173 48.6391 79.7812 85.8156 79.7812C139.491 79.7812 183 68.3901 183 54.3392C183 48.7523 176.118 43.5876 164.459 39.3906Z" fill="#F5F5F5"/>
<path fill-rule="evenodd" clip-rule="evenodd" d="M15.0243 44.8116C13.2426 44.8116 12.3522 43.5904 12.3522 41.148C12.3522 39.4951 12.7521 38.176 13.5551 37.1887C14.1771 36.4417 15.4242 35.8307 17.2944 35.3592V41.2673C17.2944 43.6301 16.5377 44.8116 15.0243 44.8116ZM27.8659 21.5916C26.1652 19.3498 22.8069 18.2275 17.7943 18.2275C13.0942 18.2275 9.49069 18.7009 6.98278 19.6466C3.26775 21.0267 1.41129 23.0152 1.41129 25.6156C1.41129 26.798 1.85857 27.801 2.75628 28.6293C3.78659 29.6157 5.20104 30.1075 6.99647 30.1075C8.65613 30.1075 9.89061 29.7312 10.6989 28.9751C11.2356 28.498 11.7734 27.605 12.3143 26.2923C12.9416 24.8225 13.8603 24.0866 15.0727 24.0866C16.5524 24.0866 17.2944 25.2107 17.2944 27.4553V30.6464C12.449 31.2769 8.8382 32.1043 6.45973 33.1285C2.15219 35.0209 0 37.857 0 41.6398C0 47.5895 5.16842 50.5616 15.5105 50.5616C19.4497 50.5616 22.6964 50.0494 25.2485 49.0279C26.7251 48.4372 27.7649 47.7892 28.3689 47.082C28.9741 46.373 29.2761 45.1342 29.2761 43.3639V26.8414C29.2761 24.6006 28.8057 22.8488 27.8659 21.5916ZM47.1209 20.5128V48.219C47.1209 49.2026 46.561 49.6954 45.4455 49.6954H35.1865C34.2488 49.6954 33.7805 49.1444 33.7805 48.0406V20.6311C33.7805 19.6077 34.3372 19.0956 35.4559 19.0956H45.5128C46.5842 19.0956 47.1209 19.568 47.1209 20.5128ZM46.6273 12.3185C46.6273 13.8938 45.9748 15.0937 44.6719 15.922C43.5911 16.5913 42.2651 16.925 40.6917 16.925C38.8921 16.925 37.3871 16.571 36.1726 15.8619C34.8245 15.0345 34.1499 13.8734 34.1499 12.3777C34.1499 9.18933 36.3084 7.59375 40.6243 7.59375C42.6471 7.59375 44.1994 8.08647 45.2781 9.07008C46.1769 9.93627 46.6273 11.0197 46.6273 12.3185ZM52.3535 48.2773V25.5482C52.3535 23.6595 52.6429 22.418 53.2239 21.8282C54.3857 20.6486 56.6632 19.7039 60.0583 18.9948C62.6956 18.4836 65.0846 18.2275 67.2284 18.2275C71.7843 18.2275 75.4699 19.2167 78.2851 21.1978C81.4549 19.2167 85.6762 18.2275 90.9509 18.2275C98.8998 18.2275 102.875 21.5675 102.875 28.2457V48.1035C102.875 49.1647 102.318 49.6945 101.204 49.6945H91.6434C90.4836 49.6945 89.9048 49.1842 89.9048 48.1599V28.6238C89.9048 26.1056 88.9366 24.8465 87.0022 24.8465C85.6972 24.8465 84.8416 25.3004 84.4364 26.2082C84.2102 26.6806 84.0997 27.5875 84.0997 28.9288V48.1571C84.0997 49.1814 83.5177 49.6945 82.3611 49.6945H73.0693C71.7759 49.6945 71.1276 49.1842 71.1276 48.1599V28.6321C71.1276 27.1779 70.9697 26.2332 70.655 25.8005C70.1594 25.0924 69.3953 24.7393 68.3608 24.7393C67.3683 24.7393 66.5811 25.0749 65.9981 25.7423C65.5466 26.2544 65.3224 27.2769 65.3224 28.8096V48.0443C65.3224 49.1463 64.6973 49.6954 63.4502 49.6954H54.0227C52.9092 49.6945 52.3535 49.223 52.3535 48.2773ZM122.533 29.7035L126.605 31.3536C131.534 33.3578 134 36.401 134 40.4871C134 43.118 133.101 45.32 131.307 47.0857C128.969 49.4042 125.418 50.5625 120.66 50.5625C115.852 50.5625 112.169 49.6205 109.609 47.7346C107.586 46.2426 106.577 44.513 106.577 42.5504C106.577 41.3329 107.023 40.2726 107.921 39.3694C108.818 38.4653 110.05 38.0133 111.621 38.0133C113.461 38.0133 114.941 38.6659 116.064 39.9685C116.331 40.3253 116.804 40.9789 117.476 41.9264C118.463 43.2715 119.404 43.9426 120.303 43.9426C121.692 43.9426 122.389 43.2548 122.389 41.8756C122.389 41.0066 122.005 40.2985 121.239 39.7457C120.653 39.2733 119.439 38.6622 117.595 37.9134L114.69 36.7311C109.691 34.6834 107.194 31.6873 107.194 27.7455C107.194 25.3818 108.002 23.3711 109.616 21.7145C111.951 19.3905 115.652 18.2275 120.726 18.2275C124.851 18.2275 127.994 18.9967 130.148 20.5331C131.943 21.7949 132.841 23.3508 132.841 25.2024C132.841 26.345 132.436 27.3305 131.625 28.1578C130.814 28.9852 129.714 29.3984 128.317 29.3984C126.29 29.3984 124.535 28.3206 123.051 26.1638C121.97 24.6348 121.002 23.8694 120.146 23.8694C118.841 23.8694 118.19 24.5766 118.19 25.991C118.19 26.896 118.642 27.6623 119.546 28.29C120.044 28.6423 121.038 29.1137 122.533 29.7035Z" fill="#F5F5F5"/>
<path d="M137.197 0.731824C136.202 0.86853 135.312 1.33905 134.722 2.03988C134.131 2.7407 133.889 3.61443 134.048 4.46884C134.207 5.32325 134.754 6.08837 135.57 6.59586C136.385 7.10336 137.402 7.31166 138.396 7.17496H149.642L150.317 8.78574L153.391 16.8397L156.465 24.8936C156.765 25.7312 158.04 26.5044 159.014 26.5044H185.255C186.305 26.5044 187.505 25.7312 187.805 24.8936L193.877 8.78574C194.177 7.94813 193.728 7.17496 192.678 7.17496H159.389L156.54 2.5359C156.237 2.00344 155.768 1.55326 155.186 1.23495C154.604 0.916642 153.931 0.742542 153.241 0.731824L138.246 0.731824C138.022 0.714392 137.796 0.714392 137.572 0.731824C137.422 0.724085 137.271 0.724085 137.122 0.731824L137.197 0.731824ZM160.889 32.9475C158.789 32.9475 157.14 34.365 157.14 36.1691C157.14 37.9731 158.789 39.3906 160.889 39.3906C162.988 39.3906 164.637 37.9731 164.637 36.1691C164.637 34.365 162.988 32.9475 160.889 32.9475ZM183.381 32.9475C181.282 32.9475 179.632 34.365 179.632 36.1691C179.632 37.9731 181.282 39.3906 183.381 39.3906C185.48 39.3906 187.13 37.9731 187.13 36.1691C187.13 34.365 185.48 32.9475 183.381 32.9475Z" fill="#F5F5F5"/>
</svg>
